<?xml version="1.0" encoding="iso-8859-1"?>
<!-- Uploaded to: SVG Repo, www.svgrepo.com, Generator: SVG Repo Mixer Tools -->
<!DOCTYPE svg PUBLIC "-//W3C//DTD SVG 1.1//EN" "http://www.w3.org/Graphics/SVG/1.1/DTD/svg11.dtd">
<svg fill="#000000" height="20px" width="20px" version="1.1" id="Capa_1" xmlns="http://www.w3.org/2000/svg" xmlns:xlink="http://www.w3.org/1999/xlink" 
	 viewBox="0 0 204.98 204.98" xml:space="preserve">
<path d="M102.491,204.98c-0.863,0-1.727-0.223-2.5-0.67c-1.813-1.047-44.702-26.343-71.072-87.67
	C2.578,55.384,12.453,6.185,12.886,4.12c0.381-1.813,1.604-3.393,3.385-3.904c1.75-0.503,3.511-0.134,4.79,1.149
	c0.805,0.565,8.101,5.299,33.513,11.004c24.568,5.515,41.861,5.943,46.575,5.943c0.743,0,1.147-0.011,1.189-0.012
	c0.102-0.003,0.207-0.003,0.309,0c0.038,0.001,0.442,0.012,1.186,0.012c4.714,0,22.006-0.428,46.574-5.943
	c25.412-5.705,32.708-10.439,33.513-11.004c1.28-1.283,3.044-1.65,4.79-1.149c1.781,0.511,3.004,2.09,3.385,3.904
	c0.433,2.064,10.309,51.264-16.032,112.52c-26.37,61.327-69.258,86.623-71.071,87.67C104.217,204.757,103.354,204.98,102.491,204.98
	z M21.714,12.946c-1.644,15.214-3.137,54.33,16.392,99.744c21.433,49.844,55.003,75.041,64.385,81.354
	c9.381-6.313,42.951-31.51,64.384-81.354c19.585-45.544,18.064-84.567,16.402-99.749c-5.542,2.416-14.961,5.657-30.681,9.186
	c-25.571,5.741-43.79,6.187-48.764,6.187c-0.671,0-1.121-0.008-1.342-0.013c-0.22,0.005-0.671,0.013-1.342,0.013
	c-4.975,0-23.193-0.446-48.765-6.187C36.675,18.6,27.259,15.361,21.714,12.946z M102.491,181.019c-0.975,0-1.95-0.285-2.795-0.854
	c-1.318-0.889-32.509-22.276-51.687-66.874C28.875,68.793,33.076,32.989,33.264,31.487c0.204-1.633,1.2-3.061,2.661-3.818
	c1.454-0.753,3.184-0.747,4.632,0.017c0.188,0.096,7.546,3.798,27.582,8.297c17.629,3.957,30.008,4.265,33.382,4.265
	c0.501,0,0.78-0.007,0.819-0.008c0.102-0.002,0.207-0.002,0.307,0c0.034,0.001,0.313,0.008,0.813,0.008
	c3.374,0,15.752-0.308,33.381-4.265c20.2-4.535,27.514-8.261,27.585-8.298c1.453-0.754,3.194-0.756,4.642,0.005
	c1.448,0.761,2.445,2.175,2.648,3.798c0.188,1.502,4.389,37.306-14.745,81.804c-19.178,44.598-50.367,65.985-51.686,66.874
	C104.441,180.734,103.465,181.019,102.491,181.019z M42.818,39.348c-0.248,11.992,1.028,38.945,14.379,69.992
	c14.773,34.357,37.426,54.262,45.288,60.439c7.861-6.198,30.573-26.192,45.299-60.439c13.351-31.047,14.627-58,14.379-69.992
	c-4.747,1.671-12.189,3.935-23.132,6.391c-18.631,4.183-31.936,4.508-35.57,4.508c-0.467,0-0.792-0.005-0.97-0.009
	c-0.177,0.004-0.502,0.009-0.97,0.009c-3.635,0-16.939-0.325-35.572-4.508C55.008,43.283,47.565,41.019,42.818,39.348z
	 M102.49,115.293c-12.958,0-23.5-10.542-23.5-23.5s10.542-23.5,23.5-23.5s23.5,10.542,23.5,23.5S115.448,115.293,102.49,115.293z
	 M102.49,78.293c-7.444,0-13.5,6.056-13.5,13.5s6.056,13.5,13.5,13.5s13.5-6.056,13.5-13.5S109.934,78.293,102.49,78.293z"/>
</svg>